<?xml version="1.0" standalone="no"?><!DOCTYPE svg PUBLIC "-//W3C//DTD SVG 1.1//EN" "http://www.w3.org/Graphics/SVG/1.1/DTD/svg11.dtd"><svg t="1749439013191" class="icon" viewBox="0 0 1024 1024" version="1.1" xmlns="http://www.w3.org/2000/svg" p-id="13036" xmlns:xlink="http://www.w3.org/1999/xlink" width="200" height="200"><path d="M512 355.328c-71.168 0-128.512 54.784-128.512 121.856v42.496c0 67.584 57.856 121.856 128.512 121.856 71.168 0 128.512-54.784 128.512-121.856v-42.496c0-67.584-57.344-121.856-128.512-121.856z m-123.904 276.992c-16.384-13.312-40.96-11.776-54.784 3.584l-7.168 8.192c-18.432 23.552-28.16 52.224-28.16 81.408v49.152c0 28.16 24.064 50.688 53.76 50.688h321.536c29.696 0 53.76-22.528 53.76-50.688v-49.152c0-32.256-11.776-62.976-32.768-86.528l-2.048-2.048-2.048-2.048c-17.408-14.848-44.544-13.824-60.416 2.56l-2.56 2.56-6.144 6.144c-30.72 23.552-68.608 36.352-108.032 36.352-48.128 0-92.672-18.432-124.928-50.176z m168.96-543.744l454.656 394.752c15.36 13.312 16.384 36.352 2.56 51.2-7.168 7.68-17.408 11.776-28.16 11.776h-45.056v315.904c0 49.664-42.496 90.112-95.232 90.112H178.176c-52.736 0-95.232-40.448-95.232-90.112v-315.904H37.888c-20.992 0-37.888-16.384-37.888-36.352 0-10.24 4.608-19.456 12.288-26.624l454.656-394.752c25.6-22.528 64.512-22.528 90.112 0z" fill="#6B6B6B" p-id="13037"></path></svg>