<?xml version="1.0" standalone="no"?><!DOCTYPE svg PUBLIC "-//W3C//DTD SVG 1.1//EN" "http://www.w3.org/Graphics/SVG/1.1/DTD/svg11.dtd"><svg t="1749438974257" class="icon" viewBox="0 0 1025 1024" version="1.1" xmlns="http://www.w3.org/2000/svg" p-id="10929" xmlns:xlink="http://www.w3.org/1999/xlink" width="200.1953125" height="200"><path d="M1019.904 727.04c-2.048-12.288-9.216-20.48-18.432-19.456h-2.048c-30.72 0-55.296-24.576-55.296-55.296 0-10.24 5.12-21.504 5.12-21.504 5.12-11.264 1.024-23.552-8.192-30.72h-1.024l-53.248-29.696h-1.024c-3.072-1.024-7.168-2.048-10.24-2.048-7.168 0-14.336 3.072-19.456 8.192-6.144 7.168-26.624 24.576-44.032 24.576-16.384 0-37.888-17.408-44.032-24.576-5.12-5.12-12.288-8.192-20.48-8.192-3.072 0-7.168 1.024-10.24 2.048h-1.024l-55.296 30.72h-1.024c-9.216 7.168-13.312 19.456-8.192 30.72 0 0 5.12 11.264 5.12 21.504 0 30.72-24.576 55.296-55.296 55.296h-2.048c-9.216 0-16.384 7.168-18.432 19.456 0 1.024-4.096 23.552-4.096 41.984 0 18.432 4.096 40.96 4.096 41.984 2.048 12.288 9.216 19.456 18.432 19.456h2.048c30.72 0 55.296 24.576 55.296 55.296 0 10.24-5.12 21.504-5.12 21.504-5.12 11.264-1.024 23.552 8.192 30.72h1.024l52.224 29.696h1.024c3.072 1.024 7.168 2.048 10.24 2.048 7.168 0 14.336-3.072 20.48-8.192 6.144-7.168 27.648-25.6 45.056-25.6 17.408 0 37.888 18.432 45.056 26.624 5.12 5.12 12.288 8.192 20.48 8.192 3.072 0 7.168-1.024 10.24-2.048h1.024l54.272-29.696h1.024c9.216-7.168 13.312-19.456 8.192-30.72 0 0-5.12-11.264-5.12-21.504 0-30.72 24.576-55.296 55.296-55.296h2.048c9.216 0 16.384-7.168 18.432-19.456 0-1.024 4.096-23.552 4.096-41.984-1.024-20.48-5.12-44.032-5.12-44.032zM811.008 874.496c-43.008 0-81.92-25.6-98.304-65.536-16.384-39.936-7.168-84.992 22.528-115.712 30.72-30.72 75.776-39.936 115.712-22.528 39.936 16.384 65.536 55.296 65.536 98.304 1.024 57.344-47.104 105.472-105.472 105.472z" p-id="10930"></path><path d="M939.008 54.272H84.992c-22.528 0-44.032 9.216-60.416 24.576C8.192 95.232 0 116.736 0 139.264v683.008c0 22.528 9.216 44.032 24.576 60.416 16.384 16.384 37.888 24.576 60.416 24.576H512v-64.512H64.512V118.784h894.976v404.48h64.512V139.264c0-22.528-9.216-44.032-24.576-60.416-16.384-15.36-37.888-24.576-60.416-24.576z m0 0" p-id="10931"></path></svg>