<?xml version="1.0" standalone="no"?><!DOCTYPE svg PUBLIC "-//W3C//DTD SVG 1.1//EN" "http://www.w3.org/Graphics/SVG/1.1/DTD/svg11.dtd"><svg t="1749438785488" class="icon" viewBox="0 0 1024 1024" version="1.1" xmlns="http://www.w3.org/2000/svg" p-id="7767" xmlns:xlink="http://www.w3.org/1999/xlink" width="200" height="200"><path d="M901.324 330.605L619.249 50.475c-58.426-60.684-153.153-60.684-211.593 0L118.11 330.605a155.222 155.222 0 0 0-27.042 38.31c-18.753 26.415-29.115 58.508-29.115 92.116v402.596c0 85.845 66.989 155.411 149.616 155.411h600.863c82.627 0 149.616-69.566 149.616-155.411V461.065c0-42.277-16.407-81.896-44.703-110.8a155.296 155.296 0 0 0-16.021-19.66z m-414.65 550.263c0 6.731-5.456 12.187-12.187 12.187H289.899c-6.727 0-12.181-5.454-12.181-12.181V621.031c0-6.727 5.454-12.181 12.181-12.181h184.588c6.731 0 12.188 5.456 12.188 12.188v259.83z m0-335.054c0 6.731-5.456 12.187-12.187 12.187H289.899c-6.727 0-12.181-5.454-12.181-12.181V417.662c0-6.727 5.454-12.181 12.181-12.181h184.588c6.731 0 12.188 5.457 12.188 12.188v128.145z m259.609 335.054c0 6.731-5.457 12.188-12.188 12.188H549.507c-6.728 0-12.181-5.454-12.181-12.181V752.716c0-6.727 5.454-12.181 12.181-12.181h184.588c6.731 0 12.187 5.456 12.187 12.187v128.146z m0-203.369c0 6.731-5.457 12.188-12.188 12.188H549.507c-6.728 0-12.181-5.454-12.181-12.181V417.662c0-6.727 5.454-12.181 12.181-12.181h184.588c6.731 0 12.187 5.457 12.187 12.187v259.831z" fill="#333333" p-id="7768"></path></svg>