<?xml version="1.0" standalone="no"?><!DOCTYPE svg PUBLIC "-//W3C//DTD SVG 1.1//EN" "http://www.w3.org/Graphics/SVG/1.1/DTD/svg11.dtd"><svg t="1749438954412" class="icon" viewBox="0 0 1024 1024" version="1.1" xmlns="http://www.w3.org/2000/svg" p-id="9859" xmlns:xlink="http://www.w3.org/1999/xlink" width="200" height="200"><path d="M629 115.7L400.7 283.6c-13.1 9.1-28.3 17.2-43.5 24.3v408.3c15.2 6.1 29.3 14.1 43.5 24.3L629 908.3c18.2 13.1 43.5 0 43.5-22.2V137.9c0-22.2-25.3-35.3-43.5-22.2zM223.8 328.1c-69.7 0-126.3 56.6-126.3 126.3v115.2c0 69.7 56.6 126.3 126.3 126.3h35.4c15.2 0 29.3 1 43.5 4V324c-14.1 3-29.3 4-43.5 4h-35.4zM793.7 296.6c-13.7-6.9-29.8-2.3-36.6 11.5-6.9 13.7-2.3 29.8 11.5 36.6 63 33.2 103.1 97.3 103.1 168.3 0 69.9-37.8 132.8-98.5 167.2-12.6 6.9-18.3 24-10.3 36.6 4.6 9.2 13.7 13.7 24 13.7 4.6 0 9.2-1.1 12.6-3.4 77.9-43.5 127.1-124.8 127.1-214.1-1.2-91.6-51.6-174.1-132.9-216.4z" p-id="9860"></path></svg>