<?xml version="1.0" standalone="no"?><!DOCTYPE svg PUBLIC "-//W3C//DTD SVG 1.1//EN" "http://www.w3.org/Graphics/SVG/1.1/DTD/svg11.dtd"><svg t="1749438928238" class="icon" viewBox="0 0 1467 1024" version="1.1" xmlns="http://www.w3.org/2000/svg" p-id="8861" xmlns:xlink="http://www.w3.org/1999/xlink" width="286.5234375" height="200"><path d="M908.190613 64.132829c5.500671 0 9.001099 1.750214 10.751313 3.000366v887.733366l-350.04273-218.276645c-20.752533-12.876572-47.005738-12.876572-67.633256 0L150.973179 954.866561v-887.733366c1.625198-1.250153 5.250641-3.000366 10.751313-3.000366h746.466121m0-64.132829H161.724492c-41.255036 0-74.759126 28.75351-74.759126 64.132829v911.861311c0 18.127213 11.751435 34.504212 30.628739 42.755219 8.125992 3.500427 16.752045 5.250641 25.378098 5.250641 11.626419 0 23.127823-3.125382 32.879013-9.251129l359.043829-224.027347 359.043828 223.902331c9.75119 6.125748 21.252594 9.251129 32.879014 9.25113 8.626053 0 17.252106-1.750214 25.378098-5.250641 18.877304-8.251007 30.628739-24.628006 30.628739-42.755219v-911.861312c0.125015-35.254304-33.379075-64.007813-74.634111-64.007813z m0 0" fill="" p-id="8862"></path><path d="M278.988806 320.164083h511.937493c17.752167 0 32.003907-14.25174 32.003906-32.003907 0-17.752167-14.25174-32.003907-32.003906-32.003907H278.988806C261.236639 256.156269 246.9849 270.533024 246.9849 288.160176c0 17.752167 14.25174 32.003907 32.003906 32.003907z m0 192.02344h511.937493c17.752167 0 32.003907-14.25174 32.003906-32.003907s-14.25174-32.003907-32.003906-32.003907H278.988806c-17.752167 0-32.003907 14.25174-32.003906 32.003907s14.25174 32.003907 32.003906 32.003907z m0 0" fill="" p-id="8863"></path></svg>