<?xml version="1.0" standalone="no"?><!DOCTYPE svg PUBLIC "-//W3C//DTD SVG 1.1//EN" "http://www.w3.org/Graphics/SVG/1.1/DTD/svg11.dtd"><svg t="1749438991570" class="icon" viewBox="0 0 1025 1024" version="1.1" xmlns="http://www.w3.org/2000/svg" p-id="12009" xmlns:xlink="http://www.w3.org/1999/xlink" width="200.1953125" height="200"><path d="M512 0c-282.76619 0-512 229.200136-512 512 0 282.732516 229.23381 512 512 512 282.765169 0 512-229.268505 512-512C1024 229.200136 794.765169 0 512 0zM512 953.600038c-243.882994 0-441.600038-197.734391-441.600038-441.600038 0-243.900341 197.717044-441.600038 441.600038-441.600038 243.882994 0 441.600038 197.699697 441.600038 441.600038C953.600038 755.865647 755.882994 953.600038 512 953.600038zM567.533428 712.366061c-14.066523 0-20.000279-7.033772-25.700359-11.332811-5.717427-4.30006-8.567466-12.366499-8.567466-24.200338 0-4.699045 0.884706-23.799312 2.651057-32.967807 1.751045-9.199108 3.751073-17.365548 5.950083-24.531975l44.234291-81.800121c2.651057-8.16644 4.449042-17.166566 5.450076-26.965682 0.983687-9.800137 1.483694-16.666559 1.483694-20.53396 0-18.800262-17.667593-37.733179-31.866771-49.500691-14.217545-11.732817-40.949551-17.632899-67.166243-17.632899-14.533876 0-29.950418 2.433707-46.250645 7.232754-16.300227 4.800067-52.149707 14.233872-69.999956 20.966619l-1.983701 33.733124c5.283747-1.866353 13.250185-3.800053 20.650288-5.832734 7.400103-2.033702 14.617551-3.06739 21.683976-3.06739 14.332853 0 35.915807 2.267379 40.999552 6.766421 5.066397 4.466389 12.883853 12.433847 12.883853 23.86768 0 6.332741-0.833685 7.2001-2.483708 14.865514-1.633696 7.667454-3.683725 15.80022-6.133759 24.366666l-37.799507 82.132778c-12.316498 23.732984-10.182795 58.467142-10.182795 59.300827 0 18.399236 15.850221 33.566795 30.483078 45.531247 14.633878 11.93486 35.15049 17.90025 61.549838 17.90025 17.15126 0 32.217796-2.064315 45.200631-6.265394 12.983855-4.199038 22.450313-1.700024 44.23327-9.668502l7.266428-27.566711C585.448984 715.332429 586.616347 712.366061 567.533428 712.366061zM596.332809 288.799947c-11.833839-10.367492-26.099344-15.53287-42.78325-15.53287-16.700233 0-31.016759 6.332741-42.950599 16.666559-11.950167 10.333818-17.932903 23.900333-17.932903 38.43421 0 14.56653 5.982737 28.065698 17.932903 38.299514 11.93384 10.232796 26.250366 17.666573 42.950599 17.666573 16.683906 0 30.949411-7.433777 42.78325-17.666573 11.850165-10.233816 17.766574-23.732984 17.766574-38.299514C614.100404 313.83295 608.183995 299.100091 596.332809 288.799947z" fill="#272636" p-id="12010"></path></svg>